<svg xmlns="http://www.w3.org/2000/svg" width="158" height="166" viewBox="0 0 158 166" fill="none">
  <path d="M121.025 62.42C122.105 50.76 120.645 38.82 114.325 28.75C109.715 21.4 102.965 15.72 95.2154 11.87C79.7754 4.2 60.3054 3.88 44.5854 10.95C35.5354 15.02 28.2354 21.69 23.1454 30.2C18.0054 38.8 15.1454 48.54 13.2854 58.33C11.5754 67.34 10.8854 76.54 11.5054 85.73C12.0854 94.32 14.0554 103.14 19.0854 110.3C21.4954 113.74 24.7854 116.69 28.4954 118.81C31.0054 120.24 33.7654 121.17 36.4754 122.14C39.4554 123.21 42.4754 124.19 45.5154 125.08C57.9054 128.68 70.8054 130.52 83.7054 129.33C86.9354 129.03 90.1254 128.52 93.2954 127.84C96.4354 127.16 97.7754 131.98 94.6254 132.66C81.0054 135.59 67.0154 135.12 53.4354 132.23C46.7854 130.81 40.2654 128.84 33.8854 126.5C31.0354 125.45 28.1654 124.43 25.5454 122.88C23.4254 121.63 21.4254 120.13 19.6154 118.45C12.6054 111.95 8.92543 102.7 7.40543 93.43C5.85543 84 5.88543 74.06 7.22543 64.61C10.1654 43.79 17.2254 21.64 36.0054 9.86C52.1754 -0.279997 73.8554 -1.68 91.5954 4.9C100.295 8.13 108.355 13.29 114.385 20.41C122.015 29.42 125.835 40.68 126.335 52.42C126.475 55.76 126.355 59.1 126.045 62.43C125.925 63.77 124.985 64.93 123.545 64.93C122.275 64.92 120.905 63.77 121.025 62.42Z" fill="black"/>
  <path d="M102.385 133.07C98.7954 133.73 95.1654 134.18 91.5254 134.42C90.2154 134.51 88.9654 133.21 89.0254 131.92C89.0854 130.49 90.1254 129.51 91.5254 129.42C93.2054 129.31 94.8755 129.15 96.5455 128.95C96.7455 128.93 96.9354 128.9 97.1354 128.88C97.3254 128.86 97.2654 128.86 96.9654 128.9C97.0954 128.88 97.2254 128.86 97.3554 128.85C97.7454 128.8 98.1354 128.74 98.5254 128.68C99.3754 128.55 100.215 128.41 101.055 128.25C102.335 128.02 103.815 128.6 104.135 130C104.405 131.22 103.755 132.82 102.385 133.07Z" fill="black"/>
  <path d="M126.665 46.99C124.545 55.63 126.905 65.05 131.875 72.3C132.465 73.16 133.085 73.97 133.765 74.76C134.545 75.66 135.345 76.26 136.255 77C137.935 78.37 138.935 80.6 140.835 81.62C142.245 82.38 143.065 82.65 144.695 83.23C146.155 83.75 147.635 84.25 149.075 84.83C151.955 86.01 155.025 87.55 156.505 90.45C158.455 94.26 156.985 98.17 155.055 101.65C150.695 109.53 143.935 115.83 136.375 120.59C127.725 126.04 117.905 129.61 107.965 131.86C104.835 132.57 103.495 127.75 106.635 127.04C122.965 123.35 140.445 115.73 149.645 100.99C150.665 99.36 151.925 97.49 152.335 95.6C152.455 95.04 152.475 94.71 152.445 93.93C152.415 93.2 152.525 94.21 152.425 93.8C152.395 93.66 152.365 93.51 152.325 93.37C152.275 93.2 152.225 93.03 152.155 92.86C152.285 93.19 152.215 92.98 152.095 92.79C152.015 92.66 151.505 91.94 151.845 92.35C151.665 92.13 151.475 91.93 151.265 91.73C151.165 91.63 151.055 91.54 150.945 91.44C150.435 90.98 151.185 91.6 150.845 91.35C150.535 91.13 150.215 90.92 149.895 90.73C148.505 89.91 147.665 89.6 146.315 89.1C143.415 88.03 140.265 87.2 137.625 85.55C135.575 84.26 134.615 81.81 132.595 80.5C130.675 79.26 129.195 77.14 127.885 75.29C121.925 66.9 119.375 55.73 121.845 45.67C122.605 42.53 127.435 43.86 126.665 46.99Z" fill="black"/>
  <path d="M104.515 133.64C101.295 133.64 101.295 128.64 104.515 128.64C107.725 128.64 107.735 133.64 104.515 133.64Z" fill="black"/>
  <path d="M50.5154 53.64C47.2954 53.64 47.2954 48.64 50.5154 48.64C53.7254 48.64 53.7354 53.64 50.5154 53.64Z" fill="black"/>
  <path d="M20.1254 35.95C23.7854 36.82 26.6654 40.61 26.2754 44.41C25.8654 48.45 22.5554 51.57 18.5154 51.82C17.2054 51.9 15.9554 50.61 16.0154 49.32C16.0754 47.9 17.1154 46.91 18.5154 46.82C18.7954 46.8 19.0054 46.66 18.4554 46.84C18.5954 46.79 18.7554 46.78 18.9054 46.74C19.0554 46.7 19.1954 46.65 19.3454 46.6C19.7654 46.47 18.9754 46.79 19.2354 46.65C19.4854 46.52 19.7354 46.39 19.9654 46.24C20.0454 46.18 20.1354 46.12 20.2154 46.06C20.1254 46.13 20.0354 46.19 19.9554 46.26C20.0354 46.16 20.2054 46.05 20.2954 45.95C20.4054 45.84 20.5154 45.73 20.6154 45.62C20.6454 45.58 20.6854 45.54 20.7154 45.5C20.8854 45.3 20.8454 45.34 20.6054 45.64C20.5854 45.54 20.9954 45.03 21.0454 44.93C21.2454 44.55 21.0154 44.87 21.0154 45.04C21.0154 44.92 21.1254 44.73 21.1654 44.61C21.2054 44.46 21.2454 44.32 21.2754 44.17C21.4054 43.66 21.2554 44.76 21.2754 44.23C21.2854 43.94 21.2854 43.66 21.2754 43.37C21.2654 43.12 21.3954 43.99 21.2754 43.42C21.2454 43.29 21.2154 43.17 21.1854 43.04C21.1454 42.89 21.0854 42.74 21.0454 42.6C20.8754 42.09 21.3054 43.1 21.0454 42.63C21.0054 42.55 20.5454 41.85 20.5654 41.83C20.5354 41.87 20.9654 42.31 20.6154 41.91C20.5154 41.79 20.4054 41.68 20.2954 41.57C20.2054 41.48 20.1054 41.4 20.0054 41.3C19.6354 40.94 20.4154 41.57 20.0154 41.31C19.7654 41.15 19.4254 41.03 19.2054 40.85C19.3054 40.89 19.4154 40.94 19.5154 40.98C19.4154 40.94 19.3254 40.91 19.2254 40.88C19.0754 40.83 18.9254 40.79 18.7754 40.76C17.5054 40.46 16.6254 38.94 17.0254 37.68C17.4854 36.37 18.7654 35.62 20.1254 35.95Z" fill="black"/>
  <path d="M17.1754 38.53C15.1954 38.92 13.2554 38.82 11.2654 38.68C10.3354 38.62 9.40542 38.55 8.47542 38.58C8.26542 38.59 8.06542 38.6 7.85542 38.62C7.25542 38.67 8.17541 38.54 7.74541 38.63C7.55541 38.67 7.36542 38.71 7.16542 38.76C7.08542 38.78 7.0054 38.8 6.9254 38.83C6.8754 38.85 6.81543 38.86 6.76543 38.88C6.56543 38.96 6.55542 38.95 6.75542 38.87C6.90542 38.9 6.94542 38.77 6.75542 38.88C6.65542 38.93 6.55541 38.98 6.46541 39.03C6.36541 39.09 5.89542 39.45 6.16542 39.21C6.42542 38.97 5.98541 39.39 5.90541 39.48C5.84541 39.55 5.78542 39.62 5.72542 39.68C5.53542 39.88 5.93541 39.28 5.74541 39.68C5.68541 39.79 5.4354 40.33 5.5554 40.01C5.6854 39.66 5.4854 40.28 5.4554 40.38C5.4354 40.45 5.41542 40.69 5.38542 40.73C5.39542 40.71 5.42542 40.23 5.41542 40.51C5.40542 40.75 5.3854 40.99 5.3954 41.23C5.3954 41.35 5.41542 41.47 5.41542 41.59C5.42542 41.88 5.40542 41.39 5.38542 41.38C5.44542 41.42 5.49541 41.92 5.52541 42.01C5.58541 42.22 5.65542 42.42 5.72542 42.63C5.90542 43.13 5.69542 42.54 5.69542 42.55C5.68542 42.55 5.8454 42.86 5.8654 42.88C5.9854 43.1 6.11542 43.31 6.25542 43.52C6.50542 43.91 6.00541 43.26 6.31541 43.6C6.49541 43.8 6.66542 43.99 6.85542 44.17C6.96542 44.27 7.5754 44.76 7.1454 44.45C7.5954 44.78 8.0554 45.07 8.5554 45.33C8.8054 45.46 9.0554 45.58 9.3054 45.7C9.4054 45.75 9.74542 45.86 9.28542 45.69C9.41542 45.74 9.5454 45.79 9.6754 45.84C10.8054 46.26 11.9654 46.56 13.1354 46.82C14.4154 47.11 15.2854 48.65 14.8854 49.9C14.4554 51.24 13.1754 51.96 11.8054 51.65C7.0454 50.57 1.66542 48.24 0.605423 42.9C0.085423 40.3 0.62541 37.48 2.68541 35.66C4.52541 34.04 6.88542 33.56 9.28542 33.6C10.4554 33.62 11.6154 33.74 12.7854 33.8C13.3554 33.83 13.9254 33.85 14.4954 33.84C14.8054 33.83 15.1154 33.82 15.4254 33.79C15.5354 33.78 15.6854 33.74 15.7954 33.75C15.6954 33.76 15.5954 33.78 15.4954 33.79C15.6154 33.77 15.7354 33.75 15.8554 33.72C17.1354 33.47 18.6154 34.08 18.9354 35.47C19.2054 36.7 18.5554 38.27 17.1754 38.53Z" fill="black"/>
  <path d="M93.6554 77.03C95.5754 78.72 98.3054 79.59 100.835 80.47C103.695 81.46 106.575 82.47 108.945 84.41C111.565 86.56 112.845 89.94 112.395 93.29C111.835 97.4 109.065 100.76 105.585 102.86C102.005 105.02 97.7454 106.1 93.7354 107.16C89.3354 108.32 84.8754 109.22 80.3454 109.7C72.0554 110.58 63.5854 109.71 56.0054 106.09C48.6854 102.6 42.6154 96.56 39.9854 88.8C38.9554 85.75 43.7754 84.43 44.8054 87.47C46.7554 93.23 51.1954 97.73 56.4154 100.68C62.4954 104.12 69.4354 105.25 76.3654 104.99C80.3854 104.84 84.3454 104.22 88.2654 103.35C92.1354 102.49 96.0454 101.5 99.7654 100.11C102.715 99.02 105.755 97.26 107.015 94.22C107.535 92.96 107.655 91.6 107.215 90.31C106.935 89.48 106.405 88.81 105.595 88.11C105.345 87.9 104.735 87.5 104.205 87.2C103.695 86.92 103.015 86.59 102.575 86.4C101.405 85.91 99.9254 85.43 98.6254 84.98C95.5654 83.91 92.5754 82.72 90.1054 80.56C89.0854 79.67 89.1954 77.94 90.1054 77.02C91.1254 76.02 92.6354 76.13 93.6554 77.03Z" fill="black"/>
  <path d="M83.6954 83.86C83.7754 83.98 83.8654 84.1 83.9554 84.22C83.8254 84.05 83.6954 83.88 83.5654 83.71C83.9854 84.26 84.4754 84.75 85.0254 85.17C84.8554 85.04 84.6854 84.91 84.5154 84.78C85.0654 85.2 85.6654 85.55 86.2954 85.82C86.0954 85.74 85.8954 85.65 85.6954 85.57C85.8454 85.63 86.0054 85.69 86.1654 85.75C86.7854 85.97 87.3154 86.32 87.6554 86.9C87.9654 87.44 88.1054 88.23 87.9054 88.83C87.7054 89.43 87.3354 90.02 86.7554 90.32C86.1854 90.62 85.4654 90.79 84.8254 90.57C83.8054 90.21 82.8354 89.75 81.9754 89.1C81.4754 88.72 80.9954 88.34 80.5654 87.89C80.1254 87.43 79.7254 86.91 79.3654 86.39C79.1854 86.1 79.0854 85.79 79.0654 85.46C78.9954 85.13 79.0054 84.8 79.1054 84.46C79.2654 83.88 79.7154 83.25 80.2554 82.97C80.8354 82.66 81.5354 82.51 82.1854 82.72C82.3854 82.8 82.5854 82.89 82.7854 82.97C83.1754 83.19 83.4754 83.49 83.6954 83.86Z" fill="black"/>
  <path d="M66.1554 85.15C66.1454 85.48 66.1654 85.81 66.2054 86.14C66.1754 85.92 66.1454 85.7 66.1154 85.48C66.1954 86.07 66.3554 86.64 66.5854 87.19C66.5054 86.99 66.4154 86.79 66.3354 86.59C66.5754 87.14 66.8754 87.65 67.2354 88.13C67.1054 87.96 66.9754 87.79 66.8454 87.62C67.2554 88.15 67.7254 88.62 68.2454 89.03C68.0754 88.9 67.9054 88.77 67.7354 88.64C68.2154 89 68.7254 89.3 69.2654 89.54C69.0654 89.46 68.8654 89.37 68.6654 89.29C69.2154 89.52 69.7854 89.68 70.3754 89.76C70.1554 89.73 69.9354 89.7 69.7154 89.67C69.9754 89.7 70.2454 89.72 70.5054 89.72C71.8154 89.73 73.0654 90.87 73.0054 92.22C72.9454 93.57 71.9054 94.73 70.5054 94.72C65.4854 94.69 61.0154 90.2 61.1454 85.15C61.1754 83.84 62.2754 82.59 63.6454 82.65C64.9854 82.71 66.1954 83.75 66.1554 85.15Z" fill="black"/>
  <path d="M102.555 131.2C103.355 139.9 104.315 148.61 104.945 157.33C105.215 160.97 103.625 164.13 100.075 165.35C97.2254 166.33 93.9254 165.86 91.0654 165.12C87.9554 164.32 89.2754 159.5 92.3954 160.3C94.4354 160.82 96.8454 161.26 98.7454 160.53C98.8754 160.48 99.3554 160.19 99.4954 160.04C99.7154 159.81 99.9054 159.46 99.9754 158.94C100.195 157.37 99.7854 155.58 99.6454 154.02C98.9454 146.42 98.2554 138.81 97.5554 131.21C97.4354 129.86 98.7954 128.71 100.055 128.71C101.505 128.7 102.425 129.85 102.555 131.2Z" fill="black"/>
  <path d="M64.9754 134.14C65.0154 140.34 65.2654 146.58 65.0754 152.77C64.9854 155.55 63.7854 157.92 61.1454 159.02C58.8454 159.98 56.3154 159.76 53.9154 159.39C52.5754 159.19 51.8454 157.51 52.1654 156.31C52.5554 154.88 53.9054 154.36 55.2454 154.56C56.4354 154.74 58.3654 154.82 59.2954 154.39C59.7654 154.18 59.9554 154.05 60.0754 153.21C60.2254 152.11 60.0854 150.88 60.0754 149.77C60.0454 144.55 60.0154 139.34 59.9854 134.12C59.9554 130.92 64.9554 130.92 64.9754 134.14Z" fill="black"/>
  <path d="M121.025 62.42C122.105 50.76 120.645 38.82 114.325 28.75C109.715 21.4 102.965 15.72 95.2154 11.87C79.7754 4.2 60.3054 3.88 44.5854 10.95C35.5354 15.02 28.2354 21.69 23.1454 30.2C18.0054 38.8 15.1454 48.54 13.2854 58.33C11.5754 67.34 10.8854 76.54 11.5054 85.73C12.0854 94.32 14.0554 103.14 19.0854 110.3C21.4954 113.74 24.7854 116.69 28.4954 118.81C31.0054 120.24 33.7654 121.17 36.4754 122.14C39.4554 123.21 42.4754 124.19 45.5154 125.08C57.9054 128.68 70.8054 130.52 83.7054 129.33C86.9354 129.03 90.1254 128.52 93.2954 127.84C96.4354 127.16 97.7754 131.98 94.6254 132.66C81.0054 135.59 67.0154 135.12 53.4354 132.23C46.7854 130.81 40.2654 128.84 33.8854 126.5C31.0354 125.45 28.1654 124.43 25.5454 122.88C23.4254 121.63 21.4254 120.13 19.6154 118.45C12.6054 111.95 8.92543 102.7 7.40543 93.43C5.85543 84 5.88543 74.06 7.22543 64.61C10.1654 43.79 17.2254 21.64 36.0054 9.86C52.1754 -0.279997 73.8554 -1.68 91.5954 4.9C100.295 8.13 108.355 13.29 114.385 20.41C122.015 29.42 125.835 40.68 126.335 52.42C126.475 55.76 126.355 59.1 126.045 62.43C125.925 63.77 124.985 64.93 123.545 64.93C122.275 64.92 120.905 63.77 121.025 62.42Z" fill="black"/>
  <path d="M102.385 133.07C98.7954 133.73 95.1654 134.18 91.5254 134.42C90.2154 134.51 88.9654 133.21 89.0254 131.92C89.0854 130.49 90.1254 129.51 91.5254 129.42C93.2054 129.31 94.8755 129.15 96.5455 128.95C96.7455 128.93 96.9354 128.9 97.1354 128.88C97.3254 128.86 97.2654 128.86 96.9654 128.9C97.0954 128.88 97.2254 128.86 97.3554 128.85C97.7454 128.8 98.1354 128.74 98.5254 128.68C99.3754 128.55 100.215 128.41 101.055 128.25C102.335 128.02 103.815 128.6 104.135 130C104.405 131.22 103.755 132.82 102.385 133.07Z" fill="black"/>
  <path d="M126.665 46.99C124.545 55.63 126.905 65.05 131.875 72.3C132.465 73.16 133.085 73.97 133.765 74.76C134.545 75.66 135.345 76.26 136.255 77C137.935 78.37 138.935 80.6 140.835 81.62C142.245 82.38 143.065 82.65 144.695 83.23C146.155 83.75 147.635 84.25 149.075 84.83C151.955 86.01 155.025 87.55 156.505 90.45C158.455 94.26 156.985 98.17 155.055 101.65C150.695 109.53 143.935 115.83 136.375 120.59C127.725 126.04 117.905 129.61 107.965 131.86C104.835 132.57 103.495 127.75 106.635 127.04C122.965 123.35 140.445 115.73 149.645 100.99C150.665 99.36 151.925 97.49 152.335 95.6C152.455 95.04 152.475 94.71 152.445 93.93C152.415 93.2 152.525 94.21 152.425 93.8C152.395 93.66 152.365 93.51 152.325 93.37C152.275 93.2 152.225 93.03 152.155 92.86C152.285 93.19 152.215 92.98 152.095 92.79C152.015 92.66 151.505 91.94 151.845 92.35C151.665 92.13 151.475 91.93 151.265 91.73C151.165 91.63 151.055 91.54 150.945 91.44C150.435 90.98 151.185 91.6 150.845 91.35C150.535 91.13 150.215 90.92 149.895 90.73C148.505 89.91 147.665 89.6 146.315 89.1C143.415 88.03 140.265 87.2 137.625 85.55C135.575 84.26 134.615 81.81 132.595 80.5C130.675 79.26 129.195 77.14 127.885 75.29C121.925 66.9 119.375 55.73 121.845 45.67C122.605 42.53 127.435 43.86 126.665 46.99Z" fill="black"/>
  <path d="M104.515 133.64C101.295 133.64 101.295 128.64 104.515 128.64C107.725 128.64 107.735 133.64 104.515 133.64Z" fill="black"/>
  <path d="M50.5154 53.64C47.2954 53.64 47.2954 48.64 50.5154 48.64C53.7254 48.64 53.7354 53.64 50.5154 53.64Z" fill="black"/>
  <path d="M20.1254 35.95C23.7854 36.82 26.6654 40.61 26.2754 44.41C25.8654 48.45 22.5554 51.57 18.5154 51.82C17.2054 51.9 15.9554 50.61 16.0154 49.32C16.0754 47.9 17.1154 46.91 18.5154 46.82C18.7954 46.8 19.0054 46.66 18.4554 46.84C18.5954 46.79 18.7554 46.78 18.9054 46.74C19.0554 46.7 19.1954 46.65 19.3454 46.6C19.7654 46.47 18.9754 46.79 19.2354 46.65C19.4854 46.52 19.7354 46.39 19.9654 46.24C20.0454 46.18 20.1354 46.12 20.2154 46.06C20.1254 46.13 20.0354 46.19 19.9554 46.26C20.0354 46.16 20.2054 46.05 20.2954 45.95C20.4054 45.84 20.5154 45.73 20.6154 45.62C20.6454 45.58 20.6854 45.54 20.7154 45.5C20.8854 45.3 20.8454 45.34 20.6054 45.64C20.5854 45.54 20.9954 45.03 21.0454 44.93C21.2454 44.55 21.0154 44.87 21.0154 45.04C21.0154 44.92 21.1254 44.73 21.1654 44.61C21.2054 44.46 21.2454 44.32 21.2754 44.17C21.4054 43.66 21.2554 44.76 21.2754 44.23C21.2854 43.94 21.2854 43.66 21.2754 43.37C21.2654 43.12 21.3954 43.99 21.2754 43.42C21.2454 43.29 21.2154 43.17 21.1854 43.04C21.1454 42.89 21.0854 42.74 21.0454 42.6C20.8754 42.09 21.3054 43.1 21.0454 42.63C21.0054 42.55 20.5454 41.85 20.5654 41.83C20.5354 41.87 20.9654 42.31 20.6154 41.91C20.5154 41.79 20.4054 41.68 20.2954 41.57C20.2054 41.48 20.1054 41.4 20.0054 41.3C19.6354 40.94 20.4154 41.57 20.0154 41.31C19.7654 41.15 19.4254 41.03 19.2054 40.85C19.3054 40.89 19.4154 40.94 19.5154 40.98C19.4154 40.94 19.3254 40.91 19.2254 40.88C19.0754 40.83 18.9254 40.79 18.7754 40.76C17.5054 40.46 16.6254 38.94 17.0254 37.68C17.4854 36.37 18.7654 35.62 20.1254 35.95Z" fill="black"/>
  <path d="M17.1754 38.53C15.1954 38.92 13.2554 38.82 11.2654 38.68C10.3354 38.62 9.40542 38.55 8.47542 38.58C8.26542 38.59 8.06542 38.6 7.85542 38.62C7.25542 38.67 8.17541 38.54 7.74541 38.63C7.55541 38.67 7.36542 38.71 7.16542 38.76C7.08542 38.78 7.0054 38.8 6.9254 38.83C6.8754 38.85 6.81543 38.86 6.76543 38.88C6.56543 38.96 6.55542 38.95 6.75542 38.87C6.90542 38.9 6.94542 38.77 6.75542 38.88C6.65542 38.93 6.55541 38.98 6.46541 39.03C6.36541 39.09 5.89542 39.45 6.16542 39.21C6.42542 38.97 5.98541 39.39 5.90541 39.48C5.84541 39.55 5.78542 39.62 5.72542 39.68C5.53542 39.88 5.93541 39.28 5.74541 39.68C5.68541 39.79 5.4354 40.33 5.5554 40.01C5.6854 39.66 5.4854 40.28 5.4554 40.38C5.4354 40.45 5.41542 40.69 5.38542 40.73C5.39542 40.71 5.42542 40.23 5.41542 40.51C5.40542 40.75 5.3854 40.99 5.3954 41.23C5.3954 41.35 5.41542 41.47 5.41542 41.59C5.42542 41.88 5.40542 41.39 5.38542 41.38C5.44542 41.42 5.49541 41.92 5.52541 42.01C5.58541 42.22 5.65542 42.42 5.72542 42.63C5.90542 43.13 5.69542 42.54 5.69542 42.55C5.68542 42.55 5.8454 42.86 5.8654 42.88C5.9854 43.1 6.11542 43.31 6.25542 43.52C6.50542 43.91 6.00541 43.26 6.31541 43.6C6.49541 43.8 6.66542 43.99 6.85542 44.17C6.96542 44.27 7.5754 44.76 7.1454 44.45C7.5954 44.78 8.0554 45.07 8.5554 45.33C8.8054 45.46 9.0554 45.58 9.3054 45.7C9.4054 45.75 9.74542 45.86 9.28542 45.69C9.41542 45.74 9.5454 45.79 9.6754 45.84C10.8054 46.26 11.9654 46.56 13.1354 46.82C14.4154 47.11 15.2854 48.65 14.8854 49.9C14.4554 51.24 13.1754 51.96 11.8054 51.65C7.0454 50.57 1.66542 48.24 0.605423 42.9C0.085423 40.3 0.62541 37.48 2.68541 35.66C4.52541 34.04 6.88542 33.56 9.28542 33.6C10.4554 33.62 11.6154 33.74 12.7854 33.8C13.3554 33.83 13.9254 33.85 14.4954 33.84C14.8054 33.83 15.1154 33.82 15.4254 33.79C15.5354 33.78 15.6854 33.74 15.7954 33.75C15.6954 33.76 15.5954 33.78 15.4954 33.79C15.6154 33.77 15.7354 33.75 15.8554 33.72C17.1354 33.47 18.6154 34.08 18.9354 35.47C19.2054 36.7 18.5554 38.27 17.1754 38.53Z" fill="black"/>
  <path d="M93.6554 77.03C95.5754 78.72 98.3054 79.59 100.835 80.47C103.695 81.46 106.575 82.47 108.945 84.41C111.565 86.56 112.845 89.94 112.395 93.29C111.835 97.4 109.065 100.76 105.585 102.86C102.005 105.02 97.7454 106.1 93.7354 107.16C89.3354 108.32 84.8754 109.22 80.3454 109.7C72.0554 110.58 63.5854 109.71 56.0054 106.09C48.6854 102.6 42.6154 96.56 39.9854 88.8C38.9554 85.75 43.7754 84.43 44.8054 87.47C46.7554 93.23 51.1954 97.73 56.4154 100.68C62.4954 104.12 69.4354 105.25 76.3654 104.99C80.3854 104.84 84.3454 104.22 88.2654 103.35C92.1354 102.49 96.0454 101.5 99.7654 100.11C102.715 99.02 105.755 97.26 107.015 94.22C107.535 92.96 107.655 91.6 107.215 90.31C106.935 89.48 106.405 88.81 105.595 88.11C105.345 87.9 104.735 87.5 104.205 87.2C103.695 86.92 103.015 86.59 102.575 86.4C101.405 85.91 99.9254 85.43 98.6254 84.98C95.5654 83.91 92.5754 82.72 90.1054 80.56C89.0854 79.67 89.1954 77.94 90.1054 77.02C91.1254 76.02 92.6354 76.13 93.6554 77.03Z" fill="black"/>
  <path d="M83.6954 83.86C83.7754 83.98 83.8654 84.1 83.9554 84.22C83.8254 84.05 83.6954 83.88 83.5654 83.71C83.9854 84.26 84.4754 84.75 85.0254 85.17C84.8554 85.04 84.6854 84.91 84.5154 84.78C85.0654 85.2 85.6654 85.55 86.2954 85.82C86.0954 85.74 85.8954 85.65 85.6954 85.57C85.8454 85.63 86.0054 85.69 86.1654 85.75C86.7854 85.97 87.3154 86.32 87.6554 86.9C87.9654 87.44 88.1054 88.23 87.9054 88.83C87.7054 89.43 87.3354 90.02 86.7554 90.32C86.1854 90.62 85.4654 90.79 84.8254 90.57C83.8054 90.21 82.8354 89.75 81.9754 89.1C81.4754 88.72 80.9954 88.34 80.5654 87.89C80.1254 87.43 79.7254 86.91 79.3654 86.39C79.1854 86.1 79.0854 85.79 79.0654 85.46C78.9954 85.13 79.0054 84.8 79.1054 84.46C79.2654 83.88 79.7154 83.25 80.2554 82.97C80.8354 82.66 81.5354 82.51 82.1854 82.72C82.3854 82.8 82.5854 82.89 82.7854 82.97C83.1754 83.19 83.4754 83.49 83.6954 83.86Z" fill="black"/>
  <path d="M66.1554 85.15C66.1454 85.48 66.1654 85.81 66.2054 86.14C66.1754 85.92 66.1454 85.7 66.1154 85.48C66.1954 86.07 66.3554 86.64 66.5854 87.19C66.5054 86.99 66.4154 86.79 66.3354 86.59C66.5754 87.14 66.8754 87.65 67.2354 88.13C67.1054 87.96 66.9754 87.79 66.8454 87.62C67.2554 88.15 67.7254 88.62 68.2454 89.03C68.0754 88.9 67.9054 88.77 67.7354 88.64C68.2154 89 68.7254 89.3 69.2654 89.54C69.0654 89.46 68.8654 89.37 68.6654 89.29C69.2154 89.52 69.7854 89.68 70.3754 89.76C70.1554 89.73 69.9354 89.7 69.7154 89.67C69.9754 89.7 70.2454 89.72 70.5054 89.72C71.8154 89.73 73.0654 90.87 73.0054 92.22C72.9454 93.57 71.9054 94.73 70.5054 94.72C65.4854 94.69 61.0154 90.2 61.1454 85.15C61.1754 83.84 62.2754 82.59 63.6454 82.65C64.9854 82.71 66.1954 83.75 66.1554 85.15Z" fill="black"/>
  <path d="M102.555 131.2C103.355 139.9 104.315 148.61 104.945 157.33C105.215 160.97 103.625 164.13 100.075 165.35C97.2254 166.33 93.9254 165.86 91.0654 165.12C87.9554 164.32 89.2754 159.5 92.3954 160.3C94.4354 160.82 96.8454 161.26 98.7454 160.53C98.8754 160.48 99.3554 160.19 99.4954 160.04C99.7154 159.81 99.9054 159.46 99.9754 158.94C100.195 157.37 99.7854 155.58 99.6454 154.02C98.9454 146.42 98.2554 138.81 97.5554 131.21C97.4354 129.86 98.7954 128.71 100.055 128.71C101.505 128.7 102.425 129.85 102.555 131.2Z" fill="black"/>
  <path d="M64.9754 134.14C65.0154 140.34 65.2654 146.58 65.0754 152.77C64.9854 155.55 63.7854 157.92 61.1454 159.02C58.8454 159.98 56.3154 159.76 53.9154 159.39C52.5754 159.19 51.8454 157.51 52.1654 156.31C52.5554 154.88 53.9054 154.36 55.2454 154.56C56.4354 154.74 58.3654 154.82 59.2954 154.39C59.7654 154.18 59.9554 154.05 60.0754 153.21C60.2254 152.11 60.0854 150.88 60.0754 149.77C60.0454 144.55 60.0154 139.34 59.9854 134.12C59.9554 130.92 64.9554 130.92 64.9754 134.14Z" fill="black"/>
</svg>